<svg width="59" height="82" viewBox="0 0 59 82" xmlns="http://www.w3.org/2000/svg" xmlns:xlink="http://www.w3.org/1999/xlink"><defs><linearGradient x1="34.426%" y1="26.976%" x2="79.408%" y2="29.931%" id="a"><stop stop-color="#6DD7FC" offset="0%"/><stop stop-color="#95E3FF" offset="100%"/></linearGradient><linearGradient x1="44.515%" y1="12.183%" x2="60.358%" y2="17.036%" id="b"><stop stop-color="#6DD7FC" offset="0%"/><stop stop-color="#95E3FF" offset="100%"/></linearGradient><polygon id="c" points="0 0 38.098542 0 38.098542 20.1135876 0 20.1135876"/><polygon id="e" points="0 0 38.098542 0 38.098542 20.1135876 0 20.1135876"/></defs><g fill="none" fill-rule="evenodd"><g transform="translate(8.275 51.475)"><path d="M21.6429696,24.4766241 C32.1461754,24.4766241 42.6493812,37.9946903 42.6493812,24.4766241 C42.6493812,10.9585579 42.0128233,3.57200508e-15 21.3246906,3.57200508e-15 C0.636557929,3.57200508e-15 0,10.9585579 0,24.4766241 C0,37.9946903 11.1397638,24.4766241 21.6429696,24.4766241 Z" fill="#14A2DD"/><path d="M21.6297568,23.8325024 C31.192377,23.8325024 40.7549973,37.9946903 40.7549973,24.4766241 C40.7549973,10.9585579 42.0281131,-7.14401016e-15 21.3399804,-7.14401016e-15 C0.651847742,-7.14401016e-15 1.9249636,10.9585579 1.9249636,24.4766241 C1.9249636,37.9946903 12.0671366,23.8325024 21.6297568,23.8325024 Z" fill="url(#a)"/><path d="M0.522503256,28.3442024 C0.559827558,28.0734741 1.1161379,27.857328 2.19143428,27.6957644 C4.54982567,28.9849865 6.15339331,29.6295976 7.00213722,29.6295976 C8.27525307,29.6295976 3.30352266,31.0975657 1.90967379,30.2737192 C0.883789756,29.6295976 0.466516802,28.7502949 0.522503256,28.3442024 Z" fill="#022D51"/><path d="M35.5331893,28.3442024 C35.5705136,28.0734741 36.126824,27.857328 37.2021204,27.6957644 C39.5605118,28.9849865 41.1640794,29.6295976 42.0128233,29.6295976 C43.2859392,29.6295976 38.3142087,31.0975657 36.9203599,30.2737192 C35.8944758,29.6295976 35.4772029,28.7502949 35.5331893,28.3442024 Z" fill="#022D51" transform="matrix(-1 0 0 1 77.748 0)"/></g><g transform="translate(14.004 52.764)"><path d="M0.270506946,0 C-0.491761664,5.14468887 0.356982241,8.3652973 2.81673866,9.66182529 C6.50637329,11.6066173 9.88373235,8.8671483 7.27264416,7.08533855 C5.5319187,5.89746538 4.64847751,3.53568586 4.62232059,0" transform="translate(0 1.03)" fill="#14A2DD"/><path d="M2.18018073,1.0305947 C1.33143683,7.0423971 2.81673866,10.2630055 6.63608623,10.69242 C8.33357404,11.1218344 8.7760211,10.2630055 7.9634274,8.11593324 C6.55514121,6.82768987 5.85099812,4.89532481 5.85099812,2.31883807 C5.85099812,-0.257648674 4.62739233,-0.687063132 2.18018073,1.0305947 Z" fill="url(#b)"/><path d="M2.81673866,10.69242 L3.45329659,10.0482983 C6.42390026,9.18946939 7.90920209,8.5453477 7.90920209,8.11593324 C7.90920209,7.47181156 9.81887588,10.69242 7.27264416,11.3365417 C5.57515635,11.7659561 4.08985452,11.5512489 2.81673866,10.69242 Z" fill="#022D51"/><g transform="matrix(-1 0 0 1 30.876 0)"><path d="M0.270506946,0 C-0.491761664,5.14468887 0.356982241,8.3652973 2.81673866,9.66182529 C6.50637329,11.6066173 9.88373235,8.8671483 7.27264416,7.08533855 C5.5319187,5.89746538 4.64847751,3.53568586 4.62232059,0" transform="translate(0 1.03)" fill="#14A2DD"/><path d="M2.18018073,1.0305947 C1.33143683,7.0423971 2.81673866,10.2630055 6.63608623,10.69242 C8.33357404,11.1218344 8.7760211,10.2630055 7.9634274,8.11593324 C6.55514121,6.82768987 5.85099812,4.89532481 5.85099812,2.31883807 C5.85099812,-0.257648674 4.62739233,-0.687063132 2.18018073,1.0305947 Z" fill="url(#b)"/><path d="M2.81673866,10.69242 L3.45329659,10.0482983 C6.42390026,9.18946939 7.90920209,8.5453477 7.90920209,8.11593324 C7.90920209,7.47181156 9.81887588,10.69242 7.27264416,11.3365417 C5.57515635,11.7659561 4.08985452,11.5512489 2.81673866,10.69242 Z" fill="#022D51"/></g></g><g transform="translate(.968)"><g transform="rotate(48 7.3 16.775)"><mask id="d" fill="#fff"><use xlink:href="#c"/></mask><path d="M1.35534896,0.279638012 C1.35534896,0.279638012 12.7849757,13.3564934 38.098542,4.31812639 L19.7239664,20.1135876 C19.7239664,20.1135876 0.399748194,18.89527 -0.000176658104,1.53412941 C-0.000176658104,1.53412941 -0.0535319756,-0.785172429 1.35534896,0.279638012" fill="#14A2DD" mask="url(#d)"/><path d="M34.4158354,6.82381644 L22.5558446,15.1336045 C22.5558446,15.1336045 3.1161293,14.1346491 0.391406739,0.12701209 C-0.0224577637,0.487823294 0.000230529657,1.53408303 0.000230529657,1.53408303 C0.39965653,18.8952237 19.7238747,20.1135412 19.7238747,20.1135412 L38.0984504,4.31808002 C35.0900267,5.39031074 37.033769,6.31413583 34.4158354,6.82381644" fill="#65CDF1"/><path d="M10.6224764 5.82040883C8.37899165 7.2256247 7.32210179 8.51304359 6.70749238 10.9158236 6.70749238 10.9158236 7.91379511 7.36800135 12.3315581 6.34400246 11.7366565 6.1816838 11.1665043 6.00730717 10.6224764 5.82040883M18.2241544 7.37273178C16.0521679 8.42548427 13.5346067 12.2844946 14.1111754 15.5586939 14.1111754 15.5586939 15.04936 9.30246882 20.9452104 7.49934034 20.002901 7.49006499 19.0949657 7.44786214 18.2241544 7.37273178M4.8614642 3.09034801C4.369685 3.38344915 3.56120551 4.07446289 3.29125402 4.66530283 3.29125402 4.66530283 3.88569728 3.74194151 5.45453249 3.45440559 5.24828772 3.33197094 5.05166771 3.21046383 4.8614642 3.09034801" fill="#022D51"/></g><g transform="scale(-1 1) rotate(48 -20.99 -46.768)"><mask id="f" fill="#fff"><use xlink:href="#e"/></mask><path d="M1.35534896,0.279638012 C1.35534896,0.279638012 12.7849757,13.3564934 38.098542,4.31812639 L19.7239664,20.1135876 C19.7239664,20.1135876 0.399748194,18.89527 -0.000176658104,1.53412941 C-0.000176658104,1.53412941 -0.0535319756,-0.785172429 1.35534896,0.279638012" fill="#14A2DD" mask="url(#f)"/><path d="M34.4158354,6.82381644 L22.5558446,15.1336045 C22.5558446,15.1336045 3.1161293,14.1346491 0.391406739,0.12701209 C-0.0224577637,0.487823294 0.000230529657,1.53408303 0.000230529657,1.53408303 C0.39965653,18.8952237 19.7238747,20.1135412 19.7238747,20.1135412 L38.0984504,4.31808002 C35.0900267,5.39031074 37.033769,6.31413583 34.4158354,6.82381644" fill="#65CDF1"/><path d="M10.6224764 5.82040883C8.37899165 7.2256247 7.32210179 8.51304359 6.70749238 10.9158236 6.70749238 10.9158236 7.91379511 7.36800135 12.3315581 6.34400246 11.7366565 6.1816838 11.1665043 6.00730717 10.6224764 5.82040883M18.2241544 7.37273178C16.0521679 8.42548427 13.5346067 12.2844946 14.1111754 15.5586939 14.1111754 15.5586939 15.04936 9.30246882 20.9452104 7.49934034 20.002901 7.49006499 19.0949657 7.44786214 18.2241544 7.37273178M4.8614642 3.09034801C4.369685 3.38344915 3.56120551 4.07446289 3.29125402 4.66530283 3.29125402 4.66530283 3.88569728 3.74194151 5.45453249 3.45440559 5.24828772 3.33197094 5.05166771 3.21046383 4.8614642 3.09034801" fill="#022D51"/></g></g><g transform="translate(.637 19.913)"><path d="M7.64586763,7.8176404 C0.943934275,9.19907084 -1.35209845,8.00601728 0.75776946,4.23847974 C2.86763737,0.470942193 6.15654911,-0.784903655 10.6245047,0.470942193" fill="#82DDFE"/><path d="M7.60153538,6.92146777 C2.47533779,7.97810098 0.719140473,7.06555412 2.33294342,4.18382719 C3.94674636,1.30210025 6.46238036,0.341524608 9.87984541,1.30210025" fill="#14A2DD"/><g transform="matrix(-1 0 0 1 57.093 0)"><path d="M7.64586763,7.8176404 C0.943934275,9.19907084 -1.35209845,8.00601728 0.75776946,4.23847974 C2.86763737,0.470942193 6.15654911,-0.784903655 10.6245047,0.470942193" fill="#82DDFE"/><path d="M7.60153538,6.92146777 C2.47533779,7.97810098 0.719140473,7.06555412 2.33294342,4.18382719 C3.94674636,1.30210025 6.46238036,0.341524608 9.87984541,1.30210025" fill="#14A2DD"/></g></g><g transform="translate(1.114 13.472)"><path d="M56.8127951,28.663415 C56.8127951,12.833048 44.1304423,0 28.4859673,0 C12.8414923,0 0.159139482,12.833048 0.159139482,28.663415 C0.159139482,44.493782 56.8127951,44.493782 56.8127951,28.663415 Z" fill="#14A2DD"/><path d="M4.27523767,13.7879151 C3.22866002,20.9137211 3.34192913,25.1207458 4.61504498,26.4089891 C5.88816084,27.6972325 4.40285901,28.7707686 0.159139482,29.6295976 C-0.26523247,25.5066727 0.159139482,22.071357 1.43225534,19.3236506 C2.7053712,16.5759441 3.65303197,14.730699 4.27523767,13.7879151 Z" fill="#65CDF1"/><path d="M56.8127951,13.5265554 C55.5396793,20.8266012 55.5396793,25.1207458 56.8127951,26.4089891 C58.085911,27.6972325 56.6006092,28.7707686 52.3568896,29.6295976 C51.9325177,25.335453 52.3568896,21.9001373 53.6300055,19.3236506 C54.9031214,16.7471638 55.9640512,14.8147988 56.8127951,13.5265554 Z" fill="#65CDF1" transform="matrix(-1 0 0 1 109.451 0)"/></g><g transform="translate(15.914 31.508)" fill="#022D51"><ellipse cx="4.111" cy="4.831" rx="4.111" ry="4.831"/><ellipse cx="23.208" cy="4.831" rx="4.111" ry="4.831"/></g><g transform="translate(0 37.949)"><path d="M4.73809773,2.11352428 C10.3079796,-0.704508094 48.7401646,-0.704508094 54.3100464,2.11352428 C59.8799283,4.93155666 61.2113707,9.7020829 54.3100464,14.5933819 C47.4087221,19.484681 11.7614781,19.484681 4.73809773,14.5933819 C-2.28528267,9.7020829 -0.831784149,4.93155666 4.73809773,2.11352428 Z" fill="#FEFEFE"/><g transform="translate(8.912 7.73)" fill="#C9E2F1"><ellipse cx="4.827" cy="2.254" rx="4.827" ry="2.254"/><ellipse cx="36.655" cy="2.254" rx="4.827" ry="2.254"/></g></g><g transform="translate(19.097 36.016)" fill="#FEFEFE" opacity=".759"><circle cx=".637" cy=".644" r="1"/><circle cx="19.733" cy=".644" r="1"/></g><g transform="translate(20 55)" fill-rule="nonzero"><rect fill="#000" opacity="0" width="20" height="20"/><path d="M0.624997758,7.960625 C0.624997758,5.73820701 1.97179799,3.73746717 4.03087773,2.90120625 C6.08995748,2.06494533 8.45043826,2.56001479 10,4.153125 C11.5495617,2.56001479 13.9100425,2.06494533 15.9691223,2.90120625 C18.028202,3.73746717 19.3750164,5.73820701 19.3750164,7.960625 C19.379243,9.69037894 18.5594823,11.3187598 17.1675,12.345625 L10.988125,17.4375 C10.2784071,18.0225072 9.24914135,18.0063587 8.558125,17.399375 L2.539375,12.1125 C1.32340077,11.0761432 0.623552042,9.55831915 0.624997758,7.960625 Z" fill="#FB6666"/></g></g></svg>
